<svg version="1.0" xmlns="http://www.w3.org/2000/svg" width="240" height="240" viewBox="0 0 180 180"><path d="M42 47.2c0 .7 5.1 16.6 11.3 35.3l11.3 34 8.6.3 8.6.3 7.7-23.2c4.3-12.7 8.1-22.7 8.5-22.2.5.4 3.9 10.2 7.6 21.8 3.7 11.6 7.2 21.6 7.7 22.3.7.9 3.4 1.2 9.1 1l8.1-.3L141.7 83c6.1-18.4 11.1-34.3 11.2-35.3.1-1.5-.9-1.7-7.3-1.7h-7.4l-8.3 24.7-8.3 24.8-8-24.5-8.1-24.5H90.7l-8 23.7c-4.5 13.1-8.3 23.5-8.6 23.2-.3-.3-4-11-8.1-23.7l-7.6-23.2-8.2-.3c-6.2-.2-8.2 0-8.2 1zM31.2 72c-5.1 4.8-1.2 13 6.2 13s11.3-8.1 6.3-12.8c-3.1-2.9-9.5-3-12.5-.2zm-.2 45.5V142h13V93H31v24.5z"/></svg>