<?xml version="1.0" standalone="no"?>
<!DOCTYPE svg PUBLIC "-//W3C//DTD SVG 20010904//EN"
 "http://www.w3.org/TR/2001/REC-SVG-20010904/DTD/svg10.dtd">
<svg version="1.0" xmlns="http://www.w3.org/2000/svg"
 width="180.000000pt" height="180.000000pt" viewBox="0 0 180.000000 180.000000"
 preserveAspectRatio="xMidYMid meet">
<metadata>
Created by potrace 1.11, written by Peter Selinger 2001-2013
</metadata>
<g transform="translate(0.000000,180.000000) scale(0.100000,-0.100000)"
fill="#000000" stroke="none">
<path d="M420 1328 c0 -7 51 -166 113 -353 l113 -340 86 -3 86 -3 77 232 c43
127 81 227 85 222 5 -4 39 -102 76 -218 37 -116 72 -216 77 -223 7 -9 34 -12
91 -10 l81 3 112 335 c61 184 111 343 112 353 1 15 -9 17 -73 17 l-74 0 -83
-247 -83 -248 -80 245 -81 245 -74 0 -74 0 -80 -237 c-45 -131 -83 -235 -86
-232 -3 3 -40 110 -81 237 l-76 232 -82 3 c-62 2 -82 0 -82 -10z"/>
<path d="M312 1080 c-51 -48 -12 -130 62 -130 74 0 113 81 63 128 -31 29 -95
30 -125 2z"/>
<path d="M310 625 l0 -245 65 0 65 0 0 245 0 245 -65 0 -65 0 0 -245z"/>
</g>
</svg>
